<?xml version="1.0" encoding="UTF-8" standalone="no"?>
<svg
   width="250mm"
   height="250mm"
   viewBox="0 0 250 250"
   version="1.1"
   id="svg8"
   xmlns="http://www.w3.org/2000/svg"
   xmlns:svg="http://www.w3.org/2000/svg">
  <defs
     id="defs8" />
  <path
     d="m 128.88499,17.174852 a 7,7 0 0 0 -7.018,6.978 c -0.01,3.024 1.923,5.712 4.734,6.636 l 13.997,8.074 c 37.54,5.31 65.908,30.973 77.593,67.142998 l 5.247,-5.219 c -11.552,-36.041998 -42.718,-62.339998 -80.175,-67.643998 l -8.616,-4.983 c 1.672,-2.369 1.654,-5.68 -0.132,-8.12 a 7,7 0 0 0 -5.63,-2.865 z m -0.019,3.733 a 3.343,3.266 0 0 1 3.344,3.267 3.343,3.266 0 0 1 -3.344,3.266 3.343,3.266 0 0 1 -3.343,-3.266 3.343,3.266 0 0 1 3.343,-3.267 z"
     style="display:inline;fill:#000000;stroke:#000000;stroke-width:1.2;stroke-dasharray:none"
     id="path1" />
  <path
     id="path10"
     style="display:inline;opacity:1;fill:#000000;stroke:#000000;stroke-width:1.2"
     d="m 133.13587,94.748755 c -0.498,0.267997 0.31781,91.212005 0.31781,91.212005 0,0.222 8.86354,0.046 8.86354,0.046 l 0.22376,-40.29832 c 3.59399,0 12.69883,-0.27329 18.42782,-0.41134 6.18297,-0.147 11.24515,-2.7052 15.23214,-7.49618 3.44199,-4.137 4.87096,-8.87421 4.74596,-14.1702 -0.08,-3.39499 0.1031,-6.78999 -0.11988,-10.18697 -0.246,-3.773 -1.57599,-7.18891 -3.75998,-10.15391 -3.325,-4.514978 -7.81884,-7.357968 -13.44983,-8.244968 -0.837,-0.132003 -1.66709,-0.254249 -2.51509,-0.254249 -8.81997,0.002 -23.29819,-0.06318 -27.96625,-0.04186 z m 10.15493,7.339605 c 3.4065,0 11.28918,0.23169 16.71216,0.25269 6.51699,0.026 12.15405,4.45019 13.44104,11.62617 l 0.0532,10.99209 c -0.175,2.669 -0.85094,5.2025 -2.39727,7.39697 -0.33005,0.46837 -0.68722,0.89066 -1.05368,1.29707 -0.0942,0.10943 -0.18984,0.21596 -0.28629,0.32143 -3.3e-4,3.5e-4 -7e-4,6.8e-4 -0.001,10e-4 -3.3e-4,3.6e-4 -7.1e-4,6.7e-4 -0.001,0.001 -0.24392,0.26665 -0.49511,0.52085 -0.75344,0.76223 -0.002,0.002 -0.004,0.005 -0.007,0.007 -0.0164,0.0149 -0.0321,0.0312 -0.0486,0.046 -1.8e-4,1.6e-4 -3.4e-4,3.5e-4 -5.2e-4,5.1e-4 -0.28983,0.26768 -0.58868,0.51898 -0.89607,0.755 -0.0117,0.009 -0.0239,0.0174 -0.0357,0.0263 -0.30391,0.23165 -0.61528,0.44934 -0.93586,0.65009 -0.001,7.8e-4 -0.002,0.002 -0.004,0.003 -5.3e-4,3.3e-4 -0.001,7.1e-4 -0.002,0.001 -0.31727,0.19845 -0.64351,0.38069 -0.97669,0.5488 -0.0311,0.0157 -0.0628,0.03 -0.0941,0.0455 -0.32403,0.16003 -0.65364,0.30877 -0.99219,0.44028 -0.007,0.003 -0.014,0.006 -0.0212,0.009 -0.33602,0.12981 -0.6805,0.24299 -1.03043,0.34468 -0.0618,0.018 -0.1243,0.0345 -0.18655,0.0517 -0.3315,0.091 -0.66733,0.17274 -1.0108,0.23875 -0.0193,0.004 -0.038,0.009 -0.0574,0.0124 -0.35239,0.0662 -0.71284,0.11564 -1.07745,0.15555 -0.0851,0.009 -0.1706,0.0174 -0.25631,0.0253 -0.3679,0.0338 -0.73956,0.0593 -1.11932,0.0667 -4.30072,0.11457 -8.53139,0.19424 -12.76769,0.13798 -1.4121,-0.0188 -2.82497,-0.0528 -4.24109,-0.10542 -0.022,0 -0.0392,-2.24843 -0.0527,-5.62085 -0.0404,-10.11725 -0.047,-30.35163 -0.047,-30.35163 0.0378,0 0.10686,10e-4 0.14572,0.002 v -0.1385 z" />
  <path
     fill="none"
     stroke="#000000"
     stroke-linecap="round"
     stroke-linejoin="round"
     stroke-width=".529"
     d="m 83.843989,122.30785 c 0.088,-0.132 0.157,-0.283 0.267,-0.394 6.126,-6.22 12.3,-12.396 18.375001,-18.666 8.377,-8.643998 16.862,-17.181998 25.242,-25.821998 5.538,-5.708 11.249,-11.244 16.71,-17.025 1.192,-1.26 1.383,-3.823 0.402,-5.303 -1.114,-1.682 -2.5,-2.759 -4.64,-2.655 -1.181,0.057 -2.124,0.56 -2.901,1.347 -4.517,4.568 -9.006,9.163 -13.5,13.752 -0.24,0.245 -0.426,0.545 -0.667,0.789 -7.23,7.323 -14.512,14.594 -21.68,21.976 A 4330.254,4330.254 0 0 1 76.196989,116.11685 c -1.99,2.016 -3.928,4.1 -5.972,6.195 1.614,1.638 3.121,3.266 4.647,4.868 3.225,3.387 6.537,6.691 9.785,10.059 7.878,8.17 15.904001,16.2 23.777001,24.375 5.927,6.156 11.825,12.338 17.875,18.374 0.724,0.723 1.667,0.892 2.25,0.396 0.718,-0.612 0.762,-1.87 -0.01,-2.635 -1.242,-1.229 -2.576,-2.363 -3.822,-3.587 -6.14,-6.03 -12.253,-12.09 -18.411,-18.101 -0.617,-0.603 -0.83,-1.194 -0.788,-2.003 0.049,-0.924 0.012,-1.852 0.012,-2.778 0,-1.896 0.528,-4.01 -0.14,-5.63 -0.758,-1.837 -2.622,-3.197 -4.082,-4.7 -3.345001,-3.447 -6.634001,-6.948 -9.931001,-10.442 -2.527,-2.678 -5.03,-5.377 -7.543,-8.067"
     style="display:inline;fill:#000000;fill-opacity:1;stroke-width:1.2;stroke-linecap:butt;stroke-linejoin:miter;stroke-dasharray:none"
     id="path3" />
  <path
     d="m 225.37999,108.19685 -16.392,0.05 -5.134,4.739 -0.004,7.682 c -3.205,-0.609 -6.355,1.125 -7.614,4.116 a 7,7 0 0 0 11.004,8.033 c 2.465,-2.11 3.157,-5.64 1.734,-8.404 l 0.064,-9.896 h 16.342 z m -22.693,16.036 a 3.343,3.266 0 0 1 3.343,3.266 3.343,3.266 0 0 1 -3.343,3.267 3.343,3.266 0 0 1 -3.343,-3.267 3.343,3.266 0 0 1 3.343,-3.266 z"
     style="display:inline;fill:#000000;stroke:#000000;stroke-width:1.2;stroke-dasharray:none"
     id="path4" />
  <path
     d="m 224.45299,157.47785 -7.847,0.075 c -8.285,27.215 -28.812,48.924 -55.495,58.772 l -0.04,-3.338 30.098,-30.055 a 6.995,6.995 0 0 0 5.468,-12.453 7,7 0 0 0 -8.699,0.173 c -2.507,2.072 -3.257,5.598 -1.719,8.446 l -25.428,23.059 v -12.502 h -5.265 l 0.067,26.155 -3.377,1.923 c -1.508,-2.264 -4.332,-3.517 -7.136,-3.023 a 7,7 0 0 0 -2.728,12.678 c 2.353,1.604 5.443,1.622 7.78,0.074 35.848,-7.677 64.501,-34.645 74.321,-69.984 z m -32.056,15.305 a 3.343,3.266 0 0 1 3.343,3.266 3.343,3.266 0 0 1 -3.343,3.267 3.343,3.266 0 0 1 -3.343,-3.267 3.343,3.266 0 0 1 3.343,-3.266 z m -46.659,45.553 a 3.343,3.266 0 0 1 3.343,3.267 3.343,3.266 0 0 1 -3.343,3.266 3.343,3.266 0 0 1 -3.343,-3.266 3.343,3.266 0 0 1 3.343,-3.267 z"
     style="display:inline;fill:#000000;stroke:#000000;stroke-width:1.2;stroke-dasharray:none"
     id="path5" />
  <path
     d="m 114.21399,33.337852 c -43.559001,6.724 -77.408001,41.588 -82.866001,85.271998 -3.512,0.027 -6.374,2.742 -6.698,6.238 a 7,7 0 0 0 5.416,7.47 c 3.423,0.78 6.895,-1.097 8.002,-4.346 l 13.503,0.042 v 9.077 l -18.242,-0.02 v 7.984 h 26.659 l 3.468,3.469 v 18.717 c 8.633,15.186 21.469,27.644 36.920001,35.7 l -0.033,14.339 c -30.866001,-10.538 -53.829001,-36.698 -60.118001,-68.578 l -8.087,0.005 c 6.776,36.845 33.875,66.787 69.856001,77.072 -0.165,2.97 1.766,5.696 4.655,6.664 a 7,7 0 0 0 7.878,-10.765 c -1.797,-2.46 -4.98,-3.477 -7.948,-2.393 l -0.007,-20.275 c -14.547001,-7.226 -26.913001,-18.384 -35.748001,-32.082 l 0.001,-18.861 -16.182,-23.564 -15.994,0.113 c 2.457,-36.759998 26.962,-68.483998 61.996001,-80.282998 l 0.027,3.841 -30.168001,28.165 c -2.429,-2.118 -6.155,-2.163 -8.764,-0.07 a 7,7 0 0 0 6.37,12.171 c 3.208,-0.95 5.294,-4.039 4.947,-7.271 l 31.530001,-29.257 v -9.628 z m -48.094001,45.125 a 3.343,3.266 0 0 1 3.343,3.267 3.343,3.266 0 0 1 -3.343,3.266 3.343,3.266 0 0 1 -3.344,-3.266 3.343,3.266 0 0 1 3.344,-3.267 z m -34.726,43.625998 a 3.407,3.407 0 0 1 3.407,3.407 3.407,3.407 0 0 1 -3.407,3.408 3.407,3.407 0 0 1 -3.407,-3.408 3.407,3.407 0 0 1 3.407,-3.407 z m 77.478001,100.45 a 3.343,3.266 0 0 1 3.343,3.267 3.343,3.266 0 0 1 -3.343,3.266 3.343,3.266 0 0 1 -3.343,-3.266 3.343,3.266 0 0 1 3.343,-3.266 z"
     style="display:inline;fill:#000000;stroke:#000000;stroke-width:1.2;stroke-dasharray:none"
     id="path6" />
  <path
     id="path12"
     style="display:inline;fill:#000000;stroke:#000000;stroke-width:1.2"
     d="m 141.65783,48.06685 c 21.93194,12.223962 48.69702,24.250119 48.50402,37.37808 v 10.477912 l 5.54591,-0.1018 c -0.502,3.16699 1.37929,6.319008 4.47828,7.460008 7.08695,2.61078 12.71348,-6.302328 7.30911,-11.578104 -2.36359,-2.307369 -6.01706,-2.650332 -8.67905,-0.904338 l -2.51613,-2.253609 0.185,-10.464994 C 182.36802,61.974053 162.92777,51.309839 141.65783,48.06685 Z m 60.94615,45.183805 c 1.25911,0 2.34421,0.675264 2.95693,1.674833 0.0233,0.03683 0.0458,0.07439 0.0677,0.112134 0.0381,0.0677 0.0769,0.13426 0.11059,0.20464 0.0696,0.1405 0.12934,0.28627 0.17983,0.43667 0.0174,0.0517 0.0336,0.10384 0.0486,0.15658 0.0315,0.11097 0.0575,0.22434 0.078,0.33951 0.0306,0.1718 0.0486,0.3476 0.0532,0.5271 1e-5,10e-4 4.6e-4,0.002 5.1e-4,0.003 7.3e-4,0.0154 0.005,0.0298 0.005,0.0455 0,0.01 -0.003,0.0184 -0.003,0.0279 0,3.5e-4 0,6.9e-4 0,0.001 2e-5,0.004 5.2e-4,0.009 5.2e-4,0.0134 0,0.24163 -0.0247,0.47754 -0.0713,0.70539 -0.0466,0.22784 -0.11505,0.44743 -0.20361,0.6568 -0.0885,0.20937 -0.19718,0.4086 -0.32297,0.5948 -0.1258,0.1862 -0.26902,0.35945 -0.42737,0.5178 -0.15835,0.15834 -0.33159,0.30156 -0.5178,0.42736 -0.1862,0.1258 -0.38542,0.23442 -0.59479,0.322978 -0.20937,0.0886 -0.42897,0.15698 -0.65681,0.2036 -0.22784,0.0466 -0.46376,0.0713 -0.70538,0.0713 -0.24163,0 -0.47754,-0.0247 -0.70539,-0.0713 -0.22713,-0.0465 -0.44595,-0.11492 -0.65474,-0.20308 -6.4e-4,-2.8e-4 -0.001,-2.5e-4 -0.002,-5.2e-4 -1.5e-4,-6e-5 -3.8e-4,6e-5 -5.2e-4,0 -9.3e-4,-4e-4 -0.002,-0.001 -0.003,-0.002 -0.2082,-0.0883 -0.40644,-0.196268 -0.5917,-0.321428 -0.1862,-0.1258 -0.35945,-0.26902 -0.5178,-0.42736 -0.15834,-0.15835 -0.30156,-0.3316 -0.42736,-0.5178 -0.1258,-0.1862 -0.23442,-0.38543 -0.32298,-0.5948 -0.0877,-0.20744 -0.15546,-0.425 -0.20205,-0.6506 -9e-4,-0.004 -0.002,-0.009 -0.003,-0.0129 -0.0457,-0.22579 -0.0703,-0.45938 -0.0703,-0.69867 0,-0.23293 0.0233,-0.46038 0.0667,-0.68058 2e-4,-0.001 3.2e-4,-0.002 5.2e-4,-0.003 3.7e-4,-0.002 6.6e-4,-0.004 0.001,-0.006 0.008,-0.0389 0.0168,-0.0774 0.0258,-0.11576 0.002,-0.01 0.004,-0.02 0.007,-0.03 2.1e-4,-8.5e-4 3.1e-4,-0.002 5.2e-4,-0.003 0.0334,-0.13581 0.0748,-0.26834 0.1235,-0.39739 2e-4,-5.1e-4 3.3e-4,-0.001 5.2e-4,-0.002 2.7e-4,-7.3e-4 7.7e-4,-10e-4 0.001,-0.002 0.0523,-0.13813 0.11275,-0.27186 0.18139,-0.40101 0.0568,-0.11027 0.12253,-0.21418 0.19017,-0.317294 0.62318,-0.950012 1.68308,-1.585433 2.90473,-1.585433 z" />
</svg>
