<?xml version="1.0" encoding="UTF-8" standalone="no"?>
<svg
   version="1.1"
   id="Layer_1"
   x="0px"
   y="0px"
   width="100%"
   viewBox="0 0 1024 1024"
   enable-background="new 0 0 1024 1024"
   xml:space="preserve"
   sodipodi:docname="logo v1_adobe_express.svg"
   inkscape:version="1.3 (0e150ed6c4, 2023-07-21)"
   xmlns:inkscape="http://www.inkscape.org/namespaces/inkscape"
   xmlns:sodipodi="http://sodipodi.sourceforge.net/DTD/sodipodi-0.dtd"
   xmlns="http://www.w3.org/2000/svg"
   xmlns:svg="http://www.w3.org/2000/svg"><defs
   id="defs7" /><sodipodi:namedview
   id="namedview7"
   pagecolor="#ffffff"
   bordercolor="#000000"
   borderopacity="0.25"
   inkscape:showpageshadow="2"
   inkscape:pageopacity="0.0"
   inkscape:pagecheckerboard="0"
   inkscape:deskcolor="#d1d1d1"
   inkscape:zoom="0.56140411"
   inkscape:cx="496.96821"
   inkscape:cy="647.48368"
   inkscape:window-width="1920"
   inkscape:window-height="1009"
   inkscape:window-x="-8"
   inkscape:window-y="18"
   inkscape:window-maximized="1"
   inkscape:current-layer="Layer_1" />&#10;<path
   fill="#000000"
   opacity="1.000000"
   stroke="none"
   d=" M293.155640,844.848450   C273.874176,829.373413 256.778778,812.215576 240.897446,793.731262   C228.809509,779.662109 218.310577,764.517212 208.672653,748.768127   C194.566315,725.717407 183.558868,701.232666 174.960861,675.566589   C170.361526,661.837036 167.112991,647.810974 163.510818,633.849670   C163.161819,632.496948 162.485977,630.984436 163.582733,628.726562   C170.482498,628.726562 177.739716,628.614319 184.990463,628.782043   C187.869095,628.848511 187.876541,631.565063 188.375229,633.588440   C193.265228,653.428955 198.965668,673.000000 207.085220,691.809448   C217.539536,716.027466 230.260681,738.930786 245.799438,760.286377   C257.468445,776.323608 270.348450,791.303467 284.662109,804.981201   C305.536835,824.928589 328.530212,842.094543 353.763977,856.227112   C370.205200,865.435242 387.201813,873.390320 404.934845,879.769592   C406.174622,880.215576 407.351105,880.960754 408.846771,880.253113   C410.011322,878.706909 409.574860,876.799011 409.583435,875.032654   C409.648865,861.533142 409.571045,848.032776 409.687073,834.533936   C409.715851,831.181458 408.869720,829.271240 405.393250,827.782776   C379.233521,816.582336 355.127869,801.848145 333.345947,783.577698   C310.656738,764.546265 291.107178,742.606201 275.159760,717.555664   C274.041595,715.799194 273.531281,714.074951 273.537811,711.959595   C273.620331,685.293518 273.541779,658.626892 273.696136,631.961426   C273.719055,628.001709 272.322083,625.273376 269.878510,622.208984   C264.152527,615.028076 257.270050,612.992188 248.175583,613.201904   C221.690109,613.812561 195.180450,613.300354 168.682587,613.514771   C163.775391,613.554443 162.295197,611.965515 162.563019,607.223816   C162.919617,600.910645 162.897491,594.549622 162.569565,588.233398   C162.341354,583.837891 163.836761,582.452209 168.229706,582.499023   C186.727295,582.696350 205.228241,582.584961 223.727951,582.574768   C229.958664,582.571350 230.576996,581.979980 230.632492,575.729248   C230.682785,570.063171 230.491562,564.390808 230.693802,558.731567   C230.823196,555.110291 229.370941,553.439209 225.814423,553.441406   C212.148102,553.449951 198.481644,553.483032 184.815582,553.424316   C182.238098,553.413208 180.925934,554.871948 179.750275,556.816772   C174.378174,565.703369 165.931839,569.357544 156.093994,570.418030   C143.542404,571.770996 129.501389,558.778931 128.567245,545.896667   C127.297546,528.387024 137.517838,515.814148 155.616119,514.556152   C158.385498,514.363708 159.172729,512.625061 159.526794,510.256714   C162.439087,490.776550 166.401413,471.505280 172.412277,452.743652   C177.175461,437.876434 182.504517,423.203278 189.029114,408.964813   C196.673843,392.281982 205.332275,376.137085 215.389099,360.853790   C223.414230,348.658051 231.806702,336.601624 241.652451,325.731628   C248.793839,317.847321 255.458633,309.545105 263.175171,302.157745   C290.725555,275.782684 320.835052,253.116272 355.077179,235.933334   C368.176880,229.359802 381.520538,223.423050 395.180878,218.390701   C415.573273,210.878342 436.676575,205.587021 458.083893,201.667664   C459.348022,201.436218 460.731445,201.226151 462.156525,202.461060   C456.307892,209.036346 449.201874,214.199753 442.932220,220.241882   C439.110138,223.925217 434.986053,227.298721 430.944824,230.749573   C428.849060,232.539169 428.291504,234.759598 428.316376,237.424133   C428.406677,247.089798 428.289795,256.757446 428.387024,266.422974   C428.413666,269.071747 427.832336,271.114044 425.772156,273.021881   C405.646332,291.659271 385.877319,310.692444 365.429260,328.966705   C356.049164,337.349609 345.026886,343.805573 335.674957,352.377899   C327.072723,360.263031 319.014038,368.671021 310.812927,376.945892   C308.959869,378.815704 308.945404,381.503082 308.345032,383.885437   C305.727417,394.272919 294.565186,403.854645 285.278259,403.600128   C267.993225,403.126404 257.163025,395.637451 254.768097,382.196716   C251.578995,364.299072 260.587097,353.484741 274.103973,349.387024   C281.912781,347.019745 290.159210,347.904022 296.947174,352.939575   C300.424805,355.519348 302.492523,354.635498 305.024170,352.289093   C314.288818,343.702148 323.548126,335.109314 332.837250,326.548859   C353.614868,307.401031 374.409637,288.271820 395.196503,269.134033   C399.476318,265.193756 403.801758,261.301239 408.013794,257.289734   C411.223419,254.232895 412.574097,245.774704 410.623810,242.020737   C409.455688,239.772278 407.707916,240.326828 405.903076,240.985092   C382.073120,249.676498 359.371582,260.622955 337.935638,274.254364   C317.080200,287.516663 297.932312,302.859924 280.440735,320.273102   C257.300171,343.309967 237.923203,369.197449 222.351425,397.904633   C213.383118,414.438049 206.179504,431.698608 199.609375,449.355133   C193.606873,465.486206 190.028412,482.113220 186.302536,498.737518   C183.999222,509.014587 182.995163,519.591553 181.601608,530.059631   C181.034286,534.321289 183.469467,536.575928 188.243912,536.585266   C204.576904,536.617188 220.910980,536.690247 237.242416,536.526306   C241.140274,536.487183 243.588776,537.824646 245.983353,540.948792   C263.468201,563.760620 281.131866,586.435852 298.841034,609.074524   C301.312592,612.234070 302.491302,615.367493 302.465820,619.510437   C302.279999,649.675476 302.395142,679.842346 302.341827,710.008423   C302.336914,712.797913 303.083496,714.999573 304.739349,717.334351   C324.542847,745.258179 349.411316,767.866394 378.144501,786.109436   C393.441803,795.821899 409.560425,804.319458 426.945648,809.927490   C431.096405,811.266296 432.519928,813.368164 432.470001,817.849365   C432.213837,840.846130 432.351257,863.847351 432.351135,886.846985   C432.351135,888.335327 432.351105,889.823608 432.351105,891.638000   C437.192932,891.553162 441.595703,890.455994 446.321991,891.298767   C459.778168,893.698181 467.611298,902.890320 469.293701,916.424500   C470.607971,926.997559 463.292389,939.592529 453.241364,944.063049   C437.955811,950.861755 420.192657,942.309204 415.531921,928.342896   C414.095184,924.037659 412.667358,919.190796 414.382568,914.240845   C415.393402,911.323730 414.793365,908.847107 411.109772,907.705505   C405.403656,905.937073 399.836060,903.721191 394.211884,901.689209   C366.093903,891.529785 339.605835,878.210449 315.163361,860.922791   C307.841797,855.744385 299.925140,851.384094 293.155640,844.848450  M285.962738,387.584106   C287.222198,386.801636 288.609467,386.167206 289.717987,385.209991   C293.622925,381.837952 294.957733,376.363647 293.153839,371.715576   C291.681610,367.922089 285.611664,363.132721 282.051575,363.564850   C276.870270,364.193695 272.802917,366.679840 270.415222,371.682678   C268.106323,376.520447 269.818146,380.501770 272.866882,383.987366   C276.078430,387.659180 280.087341,389.871826 285.962738,387.584106  M431.358002,912.091248   C430.831635,913.121765 430.148499,914.102844 429.805115,915.191101   C427.999847,920.912842 430.731232,927.107666 436.176544,929.830750   C441.596375,932.541077 447.582031,930.921448 451.384705,925.715698   C455.068207,920.672974 454.549286,915.137390 449.958252,910.497681   C444.465576,904.946777 438.715942,905.267822 431.358002,912.091248  M161.221283,531.440613   C159.356522,530.311768 157.307892,530.967590 155.354446,530.910583   C149.698212,530.745422 145.440079,534.112549 143.811401,539.839050   C142.617081,544.038330 145.606827,550.523621 149.874573,552.991150   C154.259644,555.526550 160.152344,554.915527 163.779449,551.549316   C170.298050,545.499573 169.628494,538.706055 161.221283,531.440613  z"
   id="path1" />&#10;<path
   fill="#000000"
   opacity="1.000000"
   stroke="none"
   d=" M658.688843,610.623901   C649.096313,614.256653 639.516235,615.610168 629.578064,615.492920   C610.756348,615.270935 591.929260,615.527588 573.106628,615.351379   C568.834473,615.311340 567.258911,616.556274 567.273071,621.016785   C567.420532,667.500244 567.331299,713.984619 567.509521,760.467896   C567.526306,764.846497 566.753906,766.750366 561.893066,766.765869   C554.239685,766.790222 546.591736,767.098328 538.933655,766.700623   C535.828308,766.539368 534.315552,765.259521 534.638184,762.054260   C534.737793,761.064880 534.646973,760.056519 534.646973,759.056885   C534.646667,650.427490 534.646118,541.798157 534.647766,433.168762   C534.647888,425.626648 534.655823,425.607971 541.982361,425.604736   C571.805420,425.591705 601.638367,425.106781 631.448853,425.716248   C664.033569,426.382446 688.264709,441.420593 702.705505,470.906952   C707.076782,479.832550 709.530579,489.513763 709.407288,499.727295   C709.222290,515.052734 710.054688,530.417786 709.234253,545.700439   C708.424438,560.786072 702.671204,574.621582 693.061462,586.230286   C683.980286,597.200500 673.068054,606.239746 658.688843,610.623901  M567.362671,579.015930   C567.149292,584.182068 569.620178,585.825745 574.714539,585.713562   C588.198242,585.416504 601.695312,585.771423 615.182007,585.553406   C623.463196,585.419495 631.726807,586.160583 640.042542,584.692444   C659.112488,581.325623 674.611084,567.289185 678.697510,548.356567   C681.806641,533.951599 680.841309,519.262085 680.320618,504.700012   C680.195557,501.202850 680.156311,497.440338 679.243774,493.904297   C672.608643,468.193024 653.744873,456.237976 629.893250,455.540131   C611.255981,454.994843 592.590149,455.416656 573.937012,455.429871   C567.371460,455.434540 567.353394,455.463196 567.352722,462.189880   C567.349121,500.828491 567.354736,539.467102 567.362671,579.015930  z"
   id="path2" />&#10;<path
   fill="#000000"
   opacity="1"
   stroke="none"
   d="m 474.84494,401.85004 c -15.12875,16.89416 -31.94543,31.65982 -46.99878,48.09948 -14.4108,15.73792 -30.20462,30.08527 -44.6626,45.72995 -9.38687,10.15729 -19.26104,19.80625 -28.97427,29.62375 -2.69867,2.7276 -2.77988,4.46533 -0.0254,7.30146 12.85824,13.23925 25.55813,26.63482 38.17761,40.10284 12.15494,12.97217 24.12125,26.12097 36.22919,39.13745 1.50799,1.62122 1.8342,3.349 1.81457,5.44739 -0.0872,9.32989 0.0567,18.66272 -0.10537,27.99066 -0.0533,3.0661 0.82449,5.35584 3.02008,7.51306 25.0588,24.62207 40.42691,41.5709 64.96247,66.71436 9.61224,9.8504 15.05589,31.08227 8.41845,24.57135 -8.07593,-7.92182 -16.51728,-15.50086 -23.77033,-24.2342 -0.7435,-0.89526 -1.48474,-1.79882 -2.29852,-2.62841 -17.95557,-18.30438 -36.04523,-36.47901 -53.85465,-54.92444 -24.28146,-25.1485 -48.70446,-50.15796 -73.0762,-75.21588 -10.67276,-10.97339 -21.75827,-21.57031 -32.03134,-32.91498 -6.60028,-7.2887 -13.388,-14.37213 -20.47266,-21.15778 -3.26126,-3.12365 -2.85082,-5.1206 0.12702,-8.13025 20.1362,-20.35122 40.34665,-40.63784 60.0722,-61.38357 14.11524,-14.84537 28.97336,-28.93863 43.1319,-43.72531 30.97009,-32.34403 62.72827,-63.91864 93.85736,-96.09851 15.74103,-16.27237 31.92664,-32.09473 47.62726,-48.39969 7.66485,-7.95987 18.96832,-7.88684 26.65405,-0.23133 7.8952,7.86408 7.96979,18.52778 0.28717,26.69913 -15.85119,16.85941 -32.61572,32.83255 -48.52972,49.61334 -16.15943,17.03971 -32.81741,33.56745 -49.5795,50.50013 z"
   id="path3"
   sodipodi:nodetypes="csssssssscssssssssssssssssc" />&#10;<path
   fill="#000000"
   opacity="1.000000"
   stroke="none"
   d=" M691.737915,815.784912   C683.513123,823.056580 675.508606,830.041687 667.575684,837.107056   C658.150940,845.501282 648.824036,854.005615 639.383362,862.381897   C634.105835,867.064453 637.122070,872.725952 636.370728,878.834167   C645.260071,876.419189 652.608826,872.992065 659.935730,869.645447   C687.139832,857.219788 712.515259,841.753052 735.583679,822.689697   C765.310425,798.124023 790.244507,769.379883 810.242493,736.338257   C824.181885,713.306946 835.339478,689.045715 843.383484,663.378967   C844.563354,659.614319 846.397095,658.423523 850.113037,658.545959   C856.729309,658.764038 863.357910,658.607239 870.649536,658.607239   C868.271484,666.480164 866.456543,673.851501 863.828857,680.920715   C857.165710,698.846497 849.811707,716.499329 840.605652,733.301086   C830.518127,751.711609 819.049500,769.200928 806.032837,785.714722   C795.614746,798.931824 784.498596,811.490295 772.362122,823.104431   C757.824768,837.016357 742.166138,849.578491 725.563293,860.993958   C695.602295,881.594116 663.224731,897.170654 628.540161,907.905518   C623.121582,909.582581 617.844666,912.513794 611.711121,911.502380   C609.056641,911.064575 606.984863,913.049500 605.134827,914.644348   C591.898254,926.055481 569.065552,921.375549 561.683533,903.970642   C553.997131,885.848267 567.059082,865.824036 586.702393,865.532837   C594.048950,865.423889 600.469421,866.995300 605.889709,872.165039   C609.326172,875.442688 613.557556,873.941345 614.503052,869.171753   C614.790100,867.723572 614.640137,866.182861 614.640564,864.684570   C614.648254,837.358765 614.757935,810.032043 614.547546,782.707886   C614.510437,777.886414 615.912842,776.078857 620.743591,776.533203   C624.376526,776.874939 628.091187,776.845642 631.727722,776.518188   C635.693726,776.160950 636.498901,777.860107 636.432983,781.451843   C636.234436,792.278503 636.346313,803.111267 636.377136,813.941467   C636.381775,815.551208 635.975647,817.467407 637.911133,818.329651   C639.608948,819.086121 640.771423,817.665527 641.863159,816.780151   C650.500610,809.776001 659.098389,802.722107 667.658997,795.623962   C678.775635,786.406250 689.836121,777.120789 700.940491,767.888306   C711.526855,759.086487 722.138977,750.315735 732.739014,741.530396   C734.235535,740.290100 735.009766,738.752686 734.979614,736.750183   C734.745361,721.157288 744.513855,709.117065 761.101013,707.877808   C775.416443,706.808228 789.726318,717.271423 790.435852,733.960022   C791.058777,748.610596 782.130920,759.986328 768.467346,763.132446   C764.401733,764.068665 760.146851,763.966003 756.173584,762.691162   C752.870911,761.631592 750.451477,762.496216 748.087341,764.655579   C736.313354,775.409729 724.526123,786.149475 712.718445,796.866577   C705.833313,803.115906 698.900940,809.313171 691.737915,815.784912  M765.630554,723.748108   C764.479858,723.652222 763.311829,723.379333 762.181396,723.490295   C756.488647,724.048645 751.247375,729.113403 750.425049,734.731506   C749.760681,739.270203 753.208435,745.053894 757.559082,746.699158   C764.230103,749.221863 769.281616,747.637817 773.080688,741.831970   C777.703735,734.766785 775.331787,728.516846 765.630554,723.748108  M596.999023,900.412537   C600.308838,895.422852 600.513977,890.075012 597.406555,886.119385   C594.310486,882.178162 590.151550,880.042725 585.203674,880.947449   C580.199585,881.862305 575.727722,887.214172 575.374512,891.686462   C574.935059,897.251343 577.675415,901.667175 583.210205,904.312988   C588.058472,906.630676 591.559875,905.737976 596.999023,900.412537  z"
   id="path4" />&#10;<path
   fill="#000000"
   opacity="1.000000"
   stroke="none"
   d=" M644.014038,244.267609   C628.509460,238.295700 612.960266,233.624619 597.231995,229.611557   C589.883789,227.736664 582.308167,226.747635 574.829407,225.391602   C566.845642,223.944016 559.996216,219.625488 552.672363,216.546326   C539.644836,211.069199 526.846436,205.050003 513.880066,199.423691   C500.464355,193.602386 486.957642,176.206650 487.672089,163.991837   C488.447052,150.742981 495.892731,140.056442 510.331757,137.626953   C524.120605,135.306854 535.724243,141.211441 541.092041,153.567184   C544.971985,162.498123 544.516479,171.667587 538.888794,179.638794   C535.064026,185.056381 534.443726,190.089920 537.037537,196.310135   C549.040527,198.257416 561.483948,198.334442 573.747742,200.349930   C590.610168,203.121170 607.259521,206.554077 623.644592,211.366852   C644.587341,217.518372 664.805969,225.520172 684.245178,235.408493   C709.825256,248.420547 733.622314,264.105347 755.529541,282.746216   C766.325317,291.932312 776.808838,301.425293 786.337585,311.846069   C805.225525,332.502472 821.991272,354.777496 835.886780,379.173889   C847.604492,399.746918 857.013611,421.312653 865.004639,443.557617   C866.473999,447.648193 866.440674,450.389526 862.500000,453.324646   C857.229675,457.250153 852.672913,462.133881 847.484253,466.905487   C843.482605,461.512421 842.439026,455.496765 840.703186,449.950226   C835.810181,434.315063 828.904297,419.606598 821.645325,404.999268   C810.025269,381.615967 795.483521,360.114960 778.553467,340.379974   C750.339905,307.492279 717.133789,280.687561 678.661926,260.407074   C667.449402,254.496368 655.893066,249.507721 644.014038,244.267609  M524.377014,156.312973   C523.136719,155.491425 521.973083,154.508331 520.642700,153.876419   C515.015930,151.203812 508.888580,153.128006 505.124725,158.643066   C502.038147,163.165741 502.855377,169.169205 507.149384,173.515976   C511.169525,177.585541 517.475281,178.258896 522.035156,175.105530   C528.163818,170.867279 529.224121,164.013229 524.377014,156.312973  z"
   id="path5" />&#10;<path
   fill="#000000"
   opacity="1"
   stroke="none"
   d="M 799.48657,460.70142 C 784.98114,464.54938 773.45862,460.57651 766,449.60394 c -2.93384,-4.31604 -3.31403,-9.33212 -4.36005,-14.14166 -0.51751,-2.37906 -1.4262,-2.98953 -3.66394,-2.84067 -3.65136,0.24295 -7.3197,0.23929 -10.98132,0.31793 -3.09949,0.0666 -4.44916,-1.33267 -4.38611,-4.56326 0.14624,-7.49573 -0.65155,-15.07742 0.21277,-22.47476 1.11359,-9.52911 -2.72949,-16.44647 -8.64331,-23.25476 -18.97034,-21.83978 -39.72833,-41.73108 -64.65967,-56.53845 -29.05798,-17.25837 -46.89066,-41.74199 -75.1796,-60.14498 -9.30048,-6.05026 -28.04251,-7.55391 -37.54989,-14.13429 2.22418,-1.70189 4.21405,-1.4296 6.05414,-1.14777 30.48877,4.66951 59.8952,12.83674 88.03113,25.77716 25.88458,11.90497 49.61108,27.06293 71.32159,45.33014 13.86969,11.66999 26.8208,24.37946 38.09351,38.68909 1.56469,1.98621 2.13739,3.9289 2.11724,6.38794 -0.0929,11.33047 -0.06,22.66226 -0.0187,33.99335 0.0124,3.39557 4.86743,10.21161 7.89459,11.3341 2.30566,0.85499 3.81232,-0.89813 5.44763,-1.81604 8.82794,-4.95498 17.9281,-5.25534 26.75147,-0.7243 11.70904,6.01291 16.30261,16.29282 14.80981,29.08658 -1.25018,10.71432 -7.87726,17.58588 -17.80475,21.96213 m -21.76129,-29.27881 c -1.4317,4.50982 0.56134,8.1622 3.12579,11.52591 2.89563,3.79797 9.97126,4.82016 14.67914,2.35507 4.95746,-2.59576 7.76947,-8.93414 6.16284,-13.78629 -1.58966,-4.8009 -4.65588,-8.22708 -9.75024,-8.83294 -6.42932,-0.76459 -11.34076,1.77527 -14.21753,8.73825 z"
   id="path6"
   sodipodi:nodetypes="cssssscsssccsssssssssccssssc" />&#10;<path
   fill="#000000"
   opacity="1.000000"
   stroke="none"
   d=" M769.689087,527.654541   C775.858398,522.667297 782.332214,519.638855 790.156128,520.581604   C793.009521,520.925537 793.496094,519.082092 793.512878,516.856812   C793.560486,510.528381 793.713806,504.197632 793.588928,497.872437   C793.531921,494.982422 794.747986,493.026001 796.432556,490.775970   C805.013977,479.314240 815.795776,474.934265 830.385986,476.285950   C845.579651,477.693512 861.004272,476.606934 876.327942,476.610748   C878.128052,476.611206 879.928162,476.610840 882.221436,476.610840   C882.221436,484.413605 882.379639,491.685669 882.150146,498.945496   C882.046082,502.236694 879.059387,501.373413 877.097046,501.380859   C858.942078,501.449524 840.786804,501.416534 822.631592,501.429565   C814.343750,501.435486 814.344666,501.452179 814.358398,509.755585   C814.365540,514.086182 814.333740,518.417175 814.382874,522.747192   C814.450134,528.681519 814.616272,534.449951 816.229797,540.398865   C820.374207,555.678833 812.730713,570.563904 797.572083,574.659790   C780.575623,579.252319 763.126709,569.747986 761.615417,549.319824   C761.003906,541.053162 764.293396,534.120605 769.689087,527.654541  M794.484619,559.025024   C799.747009,556.633545 802.518066,552.144287 802.307800,546.774597   C802.033630,539.772095 794.209595,534.260315 787.771362,535.621582   C781.330139,536.983398 776.171387,544.215332 777.508667,550.008545   C779.281677,557.689148 786.299744,561.705383 794.484619,559.025024  z"
   id="path7" />&#10;</svg>
