<?xml version="1.0" encoding="UTF-8" standalone="no"?>
<!-- Created with Inkscape (http://www.inkscape.org/) -->

<svg
   width="210mm"
   height="297mm"
   viewBox="0 0 210 297"
   version="1.1"
   id="svg1"
   inkscape:version="1.3.2 (091e20e, 2023-11-25)"
   sodipodi:docname="logo.svg"
   xmlns:inkscape="http://www.inkscape.org/namespaces/inkscape"
   xmlns:sodipodi="http://sodipodi.sourceforge.net/DTD/sodipodi-0.dtd"
   xmlns="http://www.w3.org/2000/svg"
   xmlns:svg="http://www.w3.org/2000/svg">
  <sodipodi:namedview
     id="namedview1"
     pagecolor="#ffffff"
     bordercolor="#000000"
     borderopacity="0.25"
     inkscape:showpageshadow="2"
     inkscape:pageopacity="0.0"
     inkscape:pagecheckerboard="0"
     inkscape:deskcolor="#d1d1d1"
     inkscape:document-units="mm"
     inkscape:zoom="0.62654368"
     inkscape:cx="335.17216"
     inkscape:cy="479.6154"
     inkscape:window-width="1512"
     inkscape:window-height="838"
     inkscape:window-x="0"
     inkscape:window-y="38"
     inkscape:window-maximized="0"
     inkscape:current-layer="layer1" />
  <defs
     id="defs1">
    <inkscape:path-effect
       effect="fillet_chamfer"
       id="path-effect259"
       is_visible="true"
       lpeversion="1"
       nodesatellites_param="F,0,0,1,0,0,0,1 @ F,0,0,1,0,0,0,1 @ F,0,0,1,0,0,0,1 @ F,0,0,1,0,0,0,1 @ F,0,0,1,0,0,0,1"
       radius="0"
       unit="px"
       method="auto"
       mode="F"
       chamfer_steps="1"
       flexible="false"
       use_knot_distance="true"
       apply_no_radius="true"
       apply_with_radius="true"
       only_selected="false"
       hide_knots="false" />
    <inkscape:path-effect
       effect="fillet_chamfer"
       id="path-effect258"
       is_visible="true"
       lpeversion="1"
       nodesatellites_param="F,0,0,1,0,0,0,1 @ F,0,0,1,0,0,0,1 @ F,0,0,1,0,0,0,1 @ F,0,0,1,0,0,0,1 @ F,0,0,1,0,0,0,1 @ F,0,0,1,0,0,0,1 @ F,0,0,1,0,0,0,1 @ F,0,0,1,0,0,0,1 @ F,0,0,1,0,0,0,1 @ F,0,0,1,0,0,0,1"
       radius="0"
       unit="px"
       method="auto"
       mode="F"
       chamfer_steps="1"
       flexible="false"
       use_knot_distance="true"
       apply_no_radius="true"
       apply_with_radius="true"
       only_selected="false"
       hide_knots="false" />
  </defs>
  <g
     inkscape:label="Layer 1"
     inkscape:groupmode="layer"
     id="layer1">
    <path
       fill="none"
       opacity="1"
       stroke="#000000"
       stroke-linecap="round"
       stroke-linejoin="round"
       stroke-width="0.529167"
       d="m 112.74336,99.805703 c -0.43157,0.266927 -0.25698,0.698567 -0.25708,1.058327 -0.008,29.80972 -0.008,59.61944 -0.003,89.42917 3e-5,0.22207 -0.1003,0.47776 0.18516,0.7276 2.54438,0 5.14611,0 7.88014,0 0,-13.5596 0,-27.05394 0,-40.67969 0.57042,0 1.01282,0 1.45521,0 5.73264,0 11.46786,0.10783 17.19723,-0.0292 6.18279,-0.14788 11.24504,-2.70531 15.23196,-7.49665 3.4422,-4.13672 4.87068,-8.87416 4.74569,-14.16999 -0.0801,-3.39497 0.1031,-6.79067 -0.11905,-10.18737 -0.24677,-3.77319 -1.57744,-7.18838 -3.76133,-10.15386 -3.32482,-4.51469 -7.81824,-7.35834 -13.44891,-8.24542 -0.83762,-0.131957 -1.6675,-0.253987 -2.51538,-0.253837 -8.81945,0.002 -17.63889,0.001 -26.45834,0.001"
       id="path15"
       style="display:inline;fill:#ffffff;fill-opacity:1" />
    <path
       fill="none"
       opacity="1"
       stroke="#000000"
       stroke-linecap="round"
       stroke-linejoin="round"
       stroke-width="0.79375"
       d="m 151.72945,120.20423 c -0.17493,-2.66835 -0.85108,-5.2026 -2.3971,-7.39718 -2.59028,-3.67693 -6.24171,-5.58399 -10.70033,-5.67123 -5.90676,-0.11557 -11.8175,-0.029 -17.72652,-0.023 -0.0883,9e-5 -0.17644,0.0826 -0.33074,0.15969 0,11.78516 0,23.60322 0,35.55356 0.50428,0 0.94667,0 1.38906,0 5.42396,0 10.84798,0.017 16.27186,-0.004 6.51693,-0.0257 12.05343,-4.20042 13.34063,-11.37644 0.15327,-0.85445 0.0208,-1.76014 0.0208,-2.64209 0,-2.82222 0,-5.64445 0,-8.46667"
       id="path5"
       style="display:inline;fill:none;fill-opacity:1" />
    <path
       id="path24-6-8"
       style="display:inline;fill:#ffffff;stroke:#000000;stroke-width:0.467887"
       inkscape:label="path24"
       d="m 169.29565,187.93459 c 3.19288,0.61952 6.39186,-1.04176 7.72159,-4.00995 1.32973,-2.96819 0.43986,-6.46125 -2.14794,-8.43143 -2.5878,-1.97019 -6.19171,-1.89841 -8.69901,0.17325 -2.5073,2.07167 -3.25738,5.59739 -1.71907,8.44549 l -25.4289,23.05861 v -12.50167 h -5.26386 l 0.067,26.15543 -3.37715,1.92283 c -1.50825,-2.26371 -4.33243,-3.51734 -7.13665,-3.02307 -2.80423,0.49427 -5.0296,2.63793 -5.62839,5.42171 -0.59879,2.78378 0.54835,5.65287 2.90133,7.25645 2.35299,1.60354 5.44285,1.622 7.77878,0.0742 35.84866,-7.67694 64.50169,-34.64484 74.32191,-69.98449 l -7.84722,0.0754 c -8.28513,27.21496 -28.81219,48.92415 -55.4949,58.77175 l -0.0395,-3.33768 30.19934,-30.15702 v 0"
       sodipodi:nodetypes="csssccccccsssccccccc" />
    <path
       fill="none"
       opacity="1"
       stroke="#000000"
       stroke-linecap="round"
       stroke-linejoin="round"
       stroke-width="0.529167"
       d="m 62.075655,127.32236 c 0.08819,-0.13229 0.157695,-0.28299 0.267253,-0.39424 6.126509,-6.22067 12.299815,-12.39594 18.375323,-18.66597 8.376428,-8.644607 16.861205,-17.183247 25.241949,-25.821873 5.53762,-5.70801 11.24883,-11.243948 16.71061,-17.02516 1.19139,-1.261062 1.38216,-3.823107 0.40138,-5.30358 -1.11375,-1.681173 -2.50045,-2.758131 -4.64102,-2.654792 -1.18014,0.05696 -2.12284,0.560919 -2.9006,1.347507 -4.51645,4.567777 -9.00582,9.162356 -13.50028,13.751853 -0.2402,0.245277 -0.42551,0.544436 -0.6666,0.788683 -7.228741,7.323312 -14.511614,14.593978 -21.680097,21.975745 -8.385866,8.635377 -16.796866,17.245027 -25.25445,25.810177 -1.990807,2.01614 -3.927975,4.0994 -5.971704,6.19514 1.613241,1.63781 3.120806,3.26569 4.646586,4.86828 3.224774,3.38708 6.537127,6.69088 9.784551,10.05873 7.87858,8.17069 15.904414,16.19948 23.77744,24.37545 5.927246,6.15531 11.825173,12.3379 17.874874,18.37363 0.72449,0.72282 1.66709,0.89215 2.24937,0.39647 0.71909,-0.61214 0.76293,-1.87098 -0.01,-2.63571 -1.24151,-1.22835 -2.57561,-2.36289 -3.8217,-3.58683 -6.139946,-6.03071 -12.252371,-12.08948 -18.410871,-18.10111 -0.617146,-0.60242 -0.830157,-1.19413 -0.78745,-2.00299 0.04877,-0.92346 0.0113,-1.85149 0.0113,-2.77753 0,-1.89619 0.528577,-4.01042 -0.139906,-5.63083 -0.75769,-1.83663 -2.621698,-3.19651 -4.08122,-4.69977 -3.345886,-3.44622 -6.634815,-6.94795 -9.931481,-10.44165 -2.526599,-2.6776 -5.029685,-5.37741 -7.543226,-8.06733"
       id="path3"
       style="display:inline;fill:#ffffff;fill-opacity:1" />
    <path
       id="path29"
       style="display:inline;fill:#ffffff;stroke:#000000;stroke-width:0.5"
       d="M 82.911085,56.839325 51.287906,86.183097 c 0.347047,3.232557 -1.739397,6.320302 -4.947079,7.271122 -3.207682,0.95082 -6.639777,-0.501121 -8.191233,-3.465285 -1.551456,-2.964164 -0.788505,-6.61181 1.820901,-8.705678 2.609406,-2.093867 6.335712,-2.048539 8.764301,0.06975 l 30.168406,-28.16514 -0.02706,-3.840451 C 43.841294,61.14574 19.337161,92.869671 16.879766,129.62978 l 15.994866,-0.11305 16.181903,23.56368 -9.11e-4,18.86215 c 8.834348,13.69727 21.200178,24.8544 35.747027,32.08095 l 0.0079,20.27549 c 2.968049,-1.08389 6.150697,-0.0679 7.947494,2.39343 1.796794,2.46126 1.794852,5.80217 -0.0048,8.26134 -1.79965,2.45916 -4.983475,3.47154 -7.872924,2.50336 -2.889446,-0.96818 -4.820561,-3.69442 -4.655622,-6.66389 C 44.243582,220.50818 17.144657,190.56645 10.369204,153.7207 l 8.086961,-0.005 c 6.288782,31.88082 29.25183,58.03991 60.117495,68.57799 l 0.03272,-14.338 C 63.155423,199.89886 50.319458,187.44129 41.686284,172.25465 l 0.0012,-18.71668 -3.468608,-3.46861 h -26.65685 v -7.98498 l 18.242307,0.0201 v -9.07695 0 l -13.503245,-0.0418 c -1.10781,3.24951 -4.578961,5.12643 -8.0022181,4.34691 -3.4232564,-0.77952 -5.7395116,-3.97431 -5.4160185,-7.47026 0.3234942,-3.49596 3.1866606,-6.21148 6.69853,-6.23828 C 15.038322,79.938803 48.886901,45.076 92.445602,38.352336 l -9.627924,8.94576 v 9.754082"
       sodipodi:nodetypes="ccssscccccccccsssccccccccccccccsscccc" />
    <path
       id="path29-7-0-4"
       style="display:inline;fill:#ffffff;stroke:#000000;stroke-width:0.5"
       d="m 119.84664,53.073696 c 21.28791,3.234993 40.74278,13.90314 54.87077,30.020457 l -0.18527,10.464992 2.51579,2.253353 c 2.66175,-1.745351 6.31572,-1.403284 8.6785,0.904027 2.36278,2.30731 2.79153,5.952135 1.02868,8.744755 -1.76285,2.79262 -5.23769,3.97328 -8.33695,2.83267 -3.09926,-1.14061 -4.97974,-4.29217 -4.47785,-7.45901 l -5.54625,0.1023 V 90.459106 c 0.1932,-13.153614 -26.6827,-25.202366 -48.63965,-37.451892"
       sodipodi:nodetypes="ccccssscccc" />
    <path
       id="path35"
       style="display:inline;fill:#ffffff;stroke:#000000;stroke-width:0.499999"
       d="m 100.09862,29.166885 c 0.01,-3.023854 1.95978,-5.699727 4.83545,-6.634757 2.87567,-0.935029 6.02668,0.08218 7.81283,2.522148 1.78614,2.439975 1.80361,5.751052 0.13245,8.120155 l 8.61615,4.98246 c 37.45664,5.30327 68.62216,31.601753 80.17453,67.644349 l -5.24709,5.21909 C 184.7374,74.850373 156.3691,49.187622 118.83041,43.877332 l -13.99779,-8.074126 c -2.81039,-0.924286 -4.74358,-3.612466 -4.734,-6.636321 z"
       sodipodi:nodetypes="sssccccccs" />
    <path
       style="display:inline;fill:#ffffff;fill-opacity:1;stroke:#000000;stroke-width:0.499999;stroke-dasharray:none;stroke-opacity:1"
       d="m 187.26952,119.53058 h 16.34226 v -6.31966 l -16.39163,0.0494 -5.13473,4.73975 -0.004,7.68182 c -3.20479,-0.60872 -6.35497,1.12482 -7.61409,4.11617 -1.25912,2.99136 -0.29691,6.45588 2.32448,8.36949 2.62139,1.91361 6.21436,1.77435 8.67977,-0.33641 2.46541,-2.11077 3.15658,-5.63937 1.73383,-8.40446 z"
       id="path46"
       sodipodi:nodetypes="ccccccssscc"
       inkscape:original-d="m 187.26952,119.53058 h 16.34226 v -6.31966 l -16.39163,0.0494 -5.13473,4.73975 -0.004,7.68182 c -3.20479,-0.60872 -6.35497,1.12482 -7.61409,4.11617 -1.25912,2.99136 -0.29691,6.45588 2.32448,8.36949 2.62139,1.91361 6.21436,1.77435 8.67977,-0.33641 2.46541,-2.11077 3.15658,-5.63937 1.73383,-8.40446 z"
       inkscape:path-effect="#path-effect258" />
    <ellipse
       style="display:inline;fill:none;fill-opacity:1;stroke:#000000;stroke-width:0.665;stroke-dasharray:none;stroke-opacity:1"
       id="path21-3"
       cx="44.351639"
       cy="86.743523"
       rx="3.3430538"
       ry="3.2664952" />
    <ellipse
       style="display:inline;fill:none;fill-opacity:1;stroke:#000000;stroke-width:0.665;stroke-dasharray:none;stroke-opacity:1"
       id="path21-3-8"
       cx="107.09859"
       cy="29.18907"
       rx="3.3430538"
       ry="3.2664952" />
    <ellipse
       style="display:inline;fill:none;fill-opacity:1;stroke:#000000;stroke-width:0.665;stroke-dasharray:none;stroke-opacity:1"
       id="path21-3-7"
       cx="180.83582"
       cy="101.72471"
       rx="3.3430538"
       ry="3.2664952" />
    <ellipse
       style="display:inline;fill:none;fill-opacity:1;stroke:#000000;stroke-width:0.665;stroke-dasharray:none;stroke-opacity:1"
       id="path21-3-7-8"
       cx="180.91893"
       cy="132.51321"
       rx="3.3430538"
       ry="3.2664952" />
    <ellipse
       style="display:inline;fill:none;fill-opacity:1;stroke:#000000;stroke-width:0.665;stroke-dasharray:none;stroke-opacity:1"
       id="path21-3-7-3"
       cx="170.62907"
       cy="181.06326"
       rx="3.3430538"
       ry="3.2664952" />
    <ellipse
       style="display:inline;fill:none;fill-opacity:1;stroke:#000000;stroke-width:0.665;stroke-dasharray:none;stroke-opacity:1"
       id="path21-3-7-1"
       cx="123.97137"
       cy="226.61748"
       rx="3.3430538"
       ry="3.2664952" />
    <ellipse
       style="display:inline;fill:none;fill-opacity:1;stroke:#000000;stroke-width:0.665;stroke-dasharray:none;stroke-opacity:1"
       id="path21-3-7-7"
       cx="87.104073"
       cy="230.81982"
       rx="3.3430538"
       ry="3.2664952" />
    <ellipse
       style="display:inline;fill:none;fill-opacity:1;stroke:#000000;stroke-width:0.5;stroke-dasharray:none;stroke-opacity:1"
       id="path21"
       cx="9.6262493"
       cy="130.51051"
       rx="3.4071746"
       ry="3.4071748" />
  </g>
</svg>
